# xmcd
#
# Track frame offsets:
#	150
#	18118
#	38724
#	58491
#	78010
#	99845
#	119866
#	134495
#	151281
#	167368
#	185164
#	202020
#	224243
#	245019
#	258231
#	277282
#	298831
#	312042
#	337324
#
# Disc length: 4817 seconds
#
# Revision: 0
# Processed by: cddbd v1.5.2PL0 Copyright (c) Steve Scherf et al.
# Submitted via: SynApp - FreeCDDB Version: 2.4
#
DISCID=2e12cf13
DTITLE=zeze di carmago and luciano - Varios
DYEAR=2005
DGENRE=Brazilian
TTITLE0=Zeze Di Camargo and Luciano - Zeze Di Camargo and Luciano: Pao de mel
TTITLE1=Zeze di Camargo and Luciano - Zeze di Camargo and Luciano: Quando a gente ama de mais-Zeze di Camargo and Luciano
TTITLE2=zeze di camargo e luciano - zeze di camargo e luciano: desejo de mulher
TTITLE3=Zeze de Camargo e Luciano - Zeze de Camargo e Luciano: Saudade Bandida
TTITLE4=Zeze di Camargo e Luciano - Zeze di Camargo e Luciano: 05- Tudo De Novo
TTITLE5=Zeze di Camargo e Luciano - Zeze di Camargo e Luciano: Sufocado
TTITLE6=Zeze di Camargo e Luciano - Zeze di Camargo e Luciano: No dia em que eu sai de casa
TTITLE7=Zeze di Carmgo and luciano - Zeze di Carmgo and luciano: mexe que è bom
TTITLE8=leandro y leonardo - leandro y leonardo: piensa en mi
TTITLE9=leandro e leonardo (portuguese) - leandro e leonardo (portuguese): temporal de amor
TTITLE10=Leandro e Leonardo - Leandro e Leonardo: Cama fria
TTITLE11=Zeze De Camargo E Luciano - Zeze De Camargo E Luciano: Aguas Passadas
TTITLE12=Zeze Di Camargo and Luciano - Zeze Di Camargo and Luciano: passou da conta
TTITLE13=ZEZE DI CAMARGO E LUCIANO - ZEZE DI CAMARGO E LUCIANO: Fio de cabelo
TTITLE14=Zeze di Camargo and Luciano - Zeze di Camargo and Luciano: Flor de Flamboyant
TTITLE15=fafa de belem - fafa de belem: zeze di camargo e luciano
TTITLE16=zeze di camargo - zeze di camargo: muda de vida
TTITLE17=jose feliciano,julio iglesias, roberto carlos and otros - jose feliciano,julio iglesias, roberto carlos and otros: cantare, cantaras
TTITLE18=Ana Gabriel and Roberto Carlos - Ana Gabriel and Roberto Carlos: Roberto Carlos y Ana Belen - A
EXTD=
EXTT0=
EXTT1=
EXTT2=
EXTT3=
EXTT4=
EXTT5=
EXTT6=
EXTT7=
EXTT8=
EXTT9=
EXTT10=
EXTT11=
EXTT12=
EXTT13=
EXTT14=
EXTT15=
EXTT16=
EXTT17=
EXTT18=
PLAYORDER=
